<svg width="0" height="0" class="hidden">
  <symbol fill="none" xmlns="http://www.w3.org/2000/svg" viewBox="0 0 40 40" id="logo">
    <path d="M20 26c3.3 0 6-2.7 6-6s-2.7-6-6-6-6 2.7-6 6 2.7 6 6 6zm0-26c-2 0-4.1.3-6 .9V12c4.4-3.3 10.7-2.4 14 2 3.3 4.4 2.4 10.7-2 14-4.4 3.3-10.7 2.4-14-2-1.3-1.7-2-3.8-2-6V2.7C.4 8.2-2.8 20.4 2.7 30c5.5 9.6 17.7 12.8 27.3 7.3 9.6-5.5 12.8-17.7 7.3-27.3C33.8 3.8 27.2 0 20 0z" fill="#E01F3D"></path>
  </symbol>
  <symbol fill="none" xmlns="http://www.w3.org/2000/svg" viewBox="0 0 52 52" id="main-1">
    <g clip-path="url(#clip0)" fill="#000">
      <path d="M15.97 1C7.717 1 1 8.276 1 17.26a12.052 12.052 0 001.658 5.917c.498.85.925 1.741 1.275 2.662.233.677.01 1.427-.555 1.866a4.117 4.117 0 00-1.546 3.237 4.159 4.159 0 001.824 3.453c.411.28.661.74.67 1.238v6.952c0 4.587 3.358 8.318 7.486 8.318s7.486-3.731 7.486-8.318a11.696 11.696 0 014.075-8.916 21.067 21.067 0 007.569-16.45C30.942 8.275 24.226 1 15.97 1zm6.322 31.406a13.354 13.354 0 00-4.658 10.18c0 3.668-2.612 6.653-5.822 6.653S5.99 46.254 5.99 42.585v-6.952a3.22 3.22 0 00-1.36-2.586 2.505 2.505 0 01-1.135-2.105 2.461 2.461 0 01.948-1.96 3.327 3.327 0 001.053-3.715 19.352 19.352 0 00-1.395-2.911 10.431 10.431 0 01-1.438-5.138c0-8.025 5.97-14.555 13.308-14.555 7.337 0 13.307 6.53 13.307 14.555a19.454 19.454 0 01-6.986 15.188z"></path>
      <path d="M15.97 5.159c-4.634 0-8.587 3.286-10.121 7.88-.011.028-.018.055-.027.084a13.307 13.307 0 00-.665 4.134c0 .998 0 4.05 1.907 5.957a.832.832 0 001.176-1.176 5.088 5.088 0 01-1.26-2.72c.135-.008.267-.019.406-.019 3.817-.001 6.921 3.492 6.921 7.783 0 .399-.019.773-.05 1.142-.414.442-.854.86-1.319 1.248a9.911 9.911 0 00-3.62 8.123.832.832 0 001.662 0 8.256 8.256 0 013.033-6.85 11.406 11.406 0 004.453-9.485c0-5.206-3.918-9.448-8.733-9.448a8.044 8.044 0 00-1.646.175 9.007 9.007 0 017.884-5.165c5.044 0 9.148 4.68 9.148 10.433a15.163 15.163 0 01-5.357 11.786c-.115.099-.242.206-.38.321-1.655 1.376-5.098 4.242-5.901 11.469a.832.832 0 00.735.914c.03.005.06.008.091.009.424 0 .78-.32.826-.74.73-6.563 3.71-9.042 5.312-10.374.147-.123.282-.236.404-.34a16.786 16.786 0 005.934-13.045c0-6.67-4.85-12.096-10.812-12.096zm-6.237 8.317c3.898 0 7.07 3.493 7.07 7.784a10.624 10.624 0 01-.915 4.575c-.559-4.625-4.153-8.2-8.5-8.2-.193 0-.377.013-.563.027v-.407c0-1.112.16-2.219.473-3.286a6.333 6.333 0 012.435-.493zm32.852 6.654a9.8 9.8 0 013.087-6.904.832.832 0 10-1.183-1.164 11.424 11.424 0 00-3.567 8.067 11.424 11.424 0 003.567 8.068.832.832 0 101.183-1.165 9.8 9.8 0 01-3.087-6.903z"></path>
      <path d="M48.129 15.35a.832.832 0 00-1.175.068 6.86 6.86 0 000 9.423.832.832 0 101.243-1.106 5.2 5.2 0 010-7.211.832.832 0 00-.068-1.175z"></path>
      <path d="M50.689 17.91a.832.832 0 00-1.175-.062 2.904 2.904 0 000 4.563.832.832 0 101.113-1.236 1.485 1.485 0 01-.556-1.046c.032-.41.234-.789.556-1.045a.832.832 0 00.062-1.174zm-12.262 2.22c0-3.66 1.64-7.197 4.74-10.217a.833.833 0 10-1.164-1.191c-3.426 3.34-5.24 7.284-5.24 11.407s1.814 8.068 5.24 11.408a.833.833 0 101.165-1.191c-3.102-3.02-4.741-6.557-4.741-10.217z"></path>
      <path d="M34.268 20.13c0-4.57 1.932-8.971 5.587-12.726a.833.833 0 00-1.193-1.164c-3.962 4.075-6.057 8.878-6.057 13.89 0 5.01 2.095 9.814 6.057 13.889a.833.833 0 101.193-1.165C36.2 29.1 34.268 24.7 34.268 20.13z"></path>
    </g>
    <defs>
      <clipPath id="clip0">
        <path fill="#fff" transform="translate(1 1)" d="M0 0h50v49.903H0z"></path>
      </clipPath>
    </defs>
  </symbol>
  <symbol fill="none" xmlns="http://www.w3.org/2000/svg" viewBox="0 0 52 52" id="main-2">
    <path d="M34.283 6H17.717A3.32 3.32 0 0014.4 9.317v37.366A3.32 3.32 0 0017.717 50h16.566a3.32 3.32 0 003.317-3.317V9.317A3.32 3.32 0 0034.283 6zM36 46.683a1.72 1.72 0 01-1.717 1.717H17.717A1.72 1.72 0 0116 46.683V9.317c0-.947.77-1.717 1.717-1.717h16.566C35.23 7.6 36 8.37 36 9.317v37.366z" fill="#000"></path>
    <path d="M30.4 2h-8.8a.8.8 0 00-.8.8v4a.8.8 0 00.8.8h8.8a.8.8 0 00.8-.8v-4a.8.8 0 00-.8-.8zm-.8 4h-7.2V3.6h7.2V6zm2.275 17.97a.799.799 0 00-.675-.37h-4.8v-7.2a.8.8 0 00-1.525-.338l-5.6 12A.8.8 0 0020 29.2h4.8v7.2a.8.8 0 001.525.338l5.6-12a.8.8 0 00-.05-.768zM24.8 27.6h-3.544l3.544-7.594V27.6zm1.6 5.194V25.2h3.544L26.4 32.794z" fill="#000"></path>
  </symbol>
  <symbol fill="none" xmlns="http://www.w3.org/2000/svg" viewBox="0 0 52 52" id="main-3">
    <path d="M38.8 12.4h-2.4v-8C36.4 3.04 35.36 2 34 2c-1.36 0-2.4 1.04-2.4 2.4v8H20.4v-8C20.4 3.04 19.36 2 18 2c-1.36 0-2.4 1.04-2.4 2.4v8h-2.4c-.48 0-.8.32-.8.8v6.08c0 4 1.52 7.84 4.24 10.8 2.4 2.72 3.76 6.24 3.76 9.84V42c0 2.24 1.76 4 4 4h.8v3.2c0 .48.32.8.8.8.48 0 .8-.32.8-.8V46h.8c2.24 0 4-1.76 4-4v-2c0-3.68 1.28-7.12 3.76-9.84 2.72-2.96 4.24-6.88 4.24-10.88V13.2c0-.48-.32-.8-.8-.8zm-5.6-8c0-.48.32-.8.8-.8.48 0 .8.32.8.8v8h-1.6v-8zm-16 0c0-.4.32-.8.8-.8.48 0 .8.32.8.8v8h-1.6v-8zM38 19.2c0 3.68-1.28 7.12-3.76 9.84A16.154 16.154 0 0030 39.92V42c0 1.36-1.04 2.4-2.4 2.4h-3.2c-1.36 0-2.4-1.04-2.4-2.4v-2c0-4-1.52-7.92-4.24-10.88-2.4-2.72-3.76-6.24-3.76-9.84V14h24v5.2z" fill="#000"></path>
    <path d="M29.2 22.8h-4.48l4.24-4.24c.32-.32.32-.8 0-1.12a.773.773 0 00-1.12 0l-5.6 5.6c-.24.24-.32.56-.16.88.08.32.4.48.72.48h4.48l-4.24 4.24c-.32.32-.32.8 0 1.12.16.16.32.24.56.24.24 0 .4-.08.56-.24l5.6-5.6c.24-.24.32-.56.16-.88-.08-.32-.4-.48-.72-.48z" fill="#000"></path>
  </symbol>
  <symbol fill="none" xmlns="http://www.w3.org/2000/svg" viewBox="0 0 52 52" id="main-22">
    <path d="M34.283 6H17.717A3.32 3.32 0 0014.4 9.317v37.366A3.32 3.32 0 0017.717 50h16.566a3.32 3.32 0 003.317-3.317V9.317A3.32 3.32 0 0034.283 6zM36 46.683a1.72 1.72 0 01-1.717 1.717H17.717A1.72 1.72 0 0116 46.683V9.317c0-.947.77-1.717 1.717-1.717h16.566C35.23 7.6 36 8.37 36 9.317v37.366z" fill="#000"></path>
    <path d="M30.4 2h-8.8a.8.8 0 00-.8.8v4a.8.8 0 00.8.8h8.8a.8.8 0 00.8-.8v-4a.8.8 0 00-.8-.8zm-.8 4h-7.2V3.6h7.2V6zm2.275 17.97a.799.799 0 00-.675-.37h-4.8v-7.2a.8.8 0 00-1.525-.338l-5.6 12A.8.8 0 0020 29.2h4.8v7.2a.8.8 0 001.525.338l5.6-12a.8.8 0 00-.05-.768zM24.8 27.6h-3.544l3.544-7.594V27.6zm1.6 5.194V25.2h3.544L26.4 32.794z" fill="#000"></path>
  </symbol>
  <symbol fill="none" xmlns="http://www.w3.org/2000/svg" viewBox="0 0 14 15" id="phone">
    <path d="M13.745 13.092c-.254.502-.763.752-1.272 1.003-.637.376-1.146.5-1.782.5-.891 0-1.782-.375-2.546-.626-.636-.25-1.145-.5-1.781-.751-1.782-1.128-3.819-3.133-4.837-4.762a11.386 11.386 0 01-.89-1.754C.381 5.825 0 5.073 0 4.072c0-.627.127-1.254.51-1.88.254-.501.508-1.003 1.017-1.253.382 0 1.018-.126 1.4-.126h.255c.254.126.382.502.509.752.254.627.636 1.128.89 1.754.255.251.51.502.51.752 0 .627-1.782 1.504-1.782 2.005 0 .25.255.626.382.877 1.018 1.754 2.29 3.007 4.073 4.01.254.125.636.375.89.375.51 0 1.4-1.754 2.037-1.754.254 0 .509.25.763.501.51.376 1.146.627 1.655 1.003.255.125.636.25.764.5v.251c.127.251 0 .877-.127 1.253z" fill="#292929"></path>
  </symbol>
</svg>